HIERARCHY
ROOT Hips
{
	OFFSET 0.000000 0.000000 0.000000
	CHANNELS 6 Xposition Yposition Zposition Xrotation Yrotation Zrotation
	JOINT LeftUpLeg_virtual
	{
		OFFSET 0.000000 0.000000 0.000000
		CHANNELS 3 Xrotation Yrotation Zrotation
		JOINT LeftUpLeg
		{
			OFFSET 10.205400 -3.823500 0.155100
			CHANNELS 3 Xrotation Yrotation Zrotation
			JOINT LeftLeg
			{
				OFFSET 0.708757 -12.982077 0.567790
				CHANNELS 3 Xrotation Yrotation Zrotation
				JOINT LeftFoot
				{
					OFFSET -0.708756 -10.717838 -2.184338
					CHANNELS 3 Xrotation Yrotation Zrotation
					JOINT LeftToeBase
					{
						OFFSET 0.108149 -7.191104 7.560241
						CHANNELS 3 Xrotation Yrotation Zrotation
						JOINT LeftToe_End
						{
							OFFSET 0.070230 0.081724 4.490308
							CHANNELS 3 Xrotation Yrotation Zrotation
							End Site
							{
								OFFSET 0 0 0
							}
						}
					}
				}
			}
		}
	}
	JOINT RightUpLeg_virtual
	{
		OFFSET 0.000000 0.000000 0.000000
		CHANNELS 3 Xrotation Yrotation Zrotation
		JOINT RightUpLeg
		{
			OFFSET -10.205400 -3.823500 0.005500
			CHANNELS 3 Xrotation Yrotation Zrotation
			JOINT RightLeg
			{
				OFFSET -0.708756 -12.982134 0.610632
				CHANNELS 3 Xrotation Yrotation Zrotation
				JOINT RightFoot
				{
					OFFSET 0.708754 -10.717769 -1.945823
					CHANNELS 3 Xrotation Yrotation Zrotation
					JOINT RightToeBase
					{
						OFFSET -0.108140 -7.191069 7.372968
						CHANNELS 3 Xrotation Yrotation Zrotation
						JOINT RightToe_End
						{
							OFFSET -0.070227 0.081735 4.479403
							CHANNELS 3 Xrotation Yrotation Zrotation
							End Site
							{
								OFFSET 0 0 0
							}
						}
					}
				}
			}
		}
	}
	JOINT Spine_virtual
	{
		OFFSET 0.000000 0.000000 0.000000
		CHANNELS 3 Xrotation Yrotation Zrotation
		JOINT Spine
		{
			OFFSET 0.000000 6.876099 0.125700
			CHANNELS 3 Xrotation Yrotation Zrotation
			JOINT Spine1
			{
				OFFSET 0.000000 5.730043 0.104720
				CHANNELS 3 Xrotation Yrotation Zrotation
				JOINT Spine1_split
				{
					OFFSET 0.000000 5.730043 0.104720
					CHANNELS 3 Xrotation Yrotation Zrotation
					JOINT Spine2
					{
						OFFSET 0.000000 5.730043 0.104720
						CHANNELS 3 Xrotation Yrotation Zrotation
						JOINT Neck_virtual
						{
							OFFSET 0.000000 0.000000 0.000000
							CHANNELS 3 Xrotation Yrotation Zrotation
							JOINT Neck
							{
								OFFSET 0.000000 10.314075 0.188496
								CHANNELS 3 Xrotation Yrotation Zrotation
								JOINT Head
								{
									OFFSET 0.000000 7.643700 -2.377400
									CHANNELS 3 Xrotation Yrotation Zrotation
									JOINT HeadTop_End
									{
										OFFSET 0.000000 43.788605 -13.619600
										CHANNELS 3 Xrotation Yrotation Zrotation
										End Site
										{
											OFFSET 0 0 0
										}
									}
								}
							}
						}
						JOINT LeftShoulder_virtual
						{
							OFFSET 0.000000 0.000000 0.000000
							CHANNELS 3 Xrotation Yrotation Zrotation
							JOINT LeftShoulder
							{
								OFFSET 2.196100 4.412489 0.087492
								CHANNELS 3 Xrotation Yrotation Zrotation
								JOINT LeftShoulder_split
								{
									OFFSET 2.196100 4.412489 0.087492
									CHANNELS 3 Xrotation Yrotation Zrotation
									JOINT LeftArm
									{
										OFFSET 8.771219 -2.981674 -0.026999
										CHANNELS 3 Xrotation Yrotation Zrotation
										JOINT LeftForeArm
										{
											OFFSET 8.512804 0.000000 -0.000000
											CHANNELS 3 Xrotation Yrotation Zrotation
											JOINT LeftHand
											{
												OFFSET 18.484802 0.000000 -0.000000
												CHANNELS 3 Xrotation Yrotation Zrotation
												End Site
												{
													OFFSET 0 0 0
												}
											}
										}
									}
								}
							}
						}
						JOINT RightShoulder_virtual
						{
							OFFSET 0.000000 0.000000 0.000000
							CHANNELS 3 Xrotation Yrotation Zrotation
							JOINT RightShoulder
							{
								OFFSET -2.196100 4.412496 0.070690
								CHANNELS 3 Xrotation Yrotation Zrotation
								JOINT RightShoulder_split
								{
									OFFSET -2.196100 4.412496 0.070690
									CHANNELS 3 Xrotation Yrotation Zrotation
									JOINT RightArm
									{
										OFFSET -8.771282 -2.981682 -0.094208
										CHANNELS 3 Xrotation Yrotation Zrotation
										JOINT RightForeArm
										{
											OFFSET -8.494598 0.000000 0.000000
											CHANNELS 3 Xrotation Yrotation Zrotation
											JOINT RightHand
											{
												OFFSET -18.483803 0.000000 0.000001
												CHANNELS 3 Xrotation Yrotation Zrotation
												End Site
												{
													OFFSET 0 0 0
												}
											}
										}
									}
								}
							}
						}
					}
				}
			}
		}
	}
}
MOTION
Frames: 8
Frame Time: 0.03333333
5.103135 15.310169 -2.230318 0.000000 0.000000 0.000000 1.040766 -28.601065 7.901918 -86.314637 -22.730388 47.915686 78.172874 8.846307 -5.902855 33.627217 -1.372307 -10.694638 -0.003313 -0.000006 -0.002859 0.000000 0.000000 0.000000 1.040766 -28.601065 7.901918 7.649392 3.062034 -29.933526 107.154651 28.163604 4.106060 -1.813932 -1.925219 17.776942 57.992124 -3.423050 -7.056619 0.000000 0.000000 0.000000 1.040766 -28.601065 7.901918 3.679455 -5.969386 -3.272796 2.844912 -4.152774 -2.149810 0.000000 0.000000 0.000000 0.000000 0.000000 0.000000 2.768604 -4.212012 -2.111295 0.463154 2.837772 2.357653 0.012653 15.814932 4.562046 0.000000 0.000000 0.000000 2.768604 -4.212012 -2.111295 1.530163 -0.744397 -1.917298 0.000000 0.000000 0.000000 -3.271990 -12.105433 -51.033032 0.000388 -88.077352 0.000331 0.000000 0.000000 0.000000 2.768604 -4.212012 -2.111295 5.560252 17.956446 2.651579 0.000000 0.000000 0.000000 -32.494437 -15.150546 39.610282 179.999868 85.307191 179.999991 0.000000 0.000000 0.000000 
5.075829 15.319077 -2.219311 0.000000 0.000000 0.000000 1.173366 -28.579303 8.048223 -86.304426 -22.555523 48.070509 78.116737 8.829417 -6.025609 33.583374 -1.298331 -10.631469 -0.003190 0.000002 -0.002749 0.000000 0.000000 0.000000 1.173366 -28.579303 8.048223 7.496789 3.108654 -29.895287 107.269289 28.163773 4.103148 -1.981375 -1.941926 17.584563 58.202002 -3.331565 -6.846994 0.000000 0.000000 0.000000 1.173366 -28.579303 8.048223 3.648410 -5.892085 -3.532430 2.810491 -4.080784 -2.306024 0.000000 0.000000 0.000000 0.000000 0.000000 0.000000 2.744172 -4.136579 -2.266374 0.495813 2.875332 2.696918 -0.557787 16.320414 5.115389 0.000000 0.000000 0.000000 2.744172 -4.136579 -2.266374 1.480363 -0.701470 -1.238155 0.000000 0.000000 0.000000 -3.264509 -12.231465 -51.554322 -0.000260 -88.164847 -0.000140 0.000000 0.000000 0.000000 2.744172 -4.136579 -2.266374 5.526709 18.040655 3.182605 0.000000 0.000000 0.000000 -31.850924 -14.060281 37.299561 179.999950 81.908325 179.999991 0.000000 0.000000 0.000000 
5.048337 15.323921 -2.215748 0.000000 0.000000 0.000000 1.263778 -28.499492 8.151068 -86.249880 -22.443523 48.196407 77.995542 8.890721 -6.231836 33.601915 -1.364727 -10.511402 -0.003116 0.000004 -0.002700 0.000000 0.000000 0.000000 1.263778 -28.499492 8.151068 7.410847 3.042760 -29.791550 107.240978 28.133228 4.090142 -1.962274 -1.942291 17.555272 58.274074 -3.266749 -6.689580 0.000000 0.000000 0.000000 1.263778 -28.499492 8.151068 3.619396 -5.857978 -3.779333 2.778899 -4.047169 -2.456911 0.000000 0.000000 0.000000 0.000000 0.000000 0.000000 2.720404 -4.100478 -2.416177 0.470069 2.870160 3.024356 -0.854837 16.670318 5.416159 0.000000 0.000000 0.000000 2.720404 -4.100478 -2.416177 1.394880 -0.547441 -0.756325 0.000000 0.000000 0.000000 -3.173337 -12.400883 -51.843424 0.000094 -88.301765 0.000151 0.000000 0.000000 0.000000 2.720404 -4.100478 -2.416177 5.516193 18.164632 3.729364 0.000000 0.000000 0.000000 -31.699588 -13.049958 35.547197 179.999950 79.055096 179.999991 0.000000 0.000000 0.000000 
5.020682 15.326931 -2.218748 0.000000 0.000000 0.000000 1.256103 -28.389263 8.136484 -86.089405 -22.465976 48.348696 77.847723 9.009607 -6.524163 33.677860 -1.556043 -10.351998 -0.002923 0.000007 -0.002484 0.000000 0.000000 0.000000 1.256103 -28.389263 8.136484 7.414194 2.897842 -29.548976 107.074027 27.997492 4.062261 -1.732332 -1.922004 17.684697 58.190241 -3.238528 -6.615382 0.000000 0.000000 0.000000 1.256103 -28.389263 8.136484 3.626118 -5.835652 -4.011547 2.778295 -4.029401 -2.594784 0.000000 0.000000 0.000000 0.000000 0.000000 0.000000 2.726738 -4.080770 -2.553045 0.351669 2.796473 3.369867 -0.812943 16.795087 5.468349 0.000000 0.000000 0.000000 2.726738 -4.080770 -2.553045 1.305365 -0.378410 -0.327977 0.000000 0.000000 0.000000 -3.074700 -12.555259 -52.027255 0.000296 -88.472226 0.000232 0.000000 0.000000 0.000000 2.726738 -4.080770 -2.553045 5.517682 18.291701 4.317704 0.000000 0.000000 0.000000 -31.107475 -11.715380 33.989644 179.999964 76.485292 179.999964 0.000000 0.000000 0.000000 
4.991851 15.329781 -2.225851 0.000000 0.000000 0.000000 1.170705 -28.311448 8.006970 -85.887648 -22.573019 48.584488 77.716078 9.144172 -6.797422 33.777328 -1.847386 -10.156356 -0.002785 0.000014 -0.002353 0.000000 0.000000 0.000000 1.170705 -28.311448 8.006970 7.478056 2.773205 -29.163299 106.830750 27.789355 4.024415 -1.396870 -1.893132 17.937588 58.049143 -3.228082 -6.574010 0.000000 0.000000 0.000000 1.170705 -28.311448 8.006970 3.681526 -5.760160 -4.241736 2.815612 -3.973170 -2.722690 0.000000 0.000000 0.000000 0.000000 0.000000 0.000000 2.771316 -4.022590 -2.680191 0.139373 2.660173 3.760026 -0.686860 16.726763 5.401313 0.000000 0.000000 0.000000 2.771316 -4.022590 -2.680191 1.226714 -0.247966 0.190804 0.000000 0.000000 0.000000 -3.087221 -12.737176 -52.240668 -0.000237 -88.656812 -0.000310 0.000000 0.000000 0.000000 2.771316 -4.022590 -2.680191 5.509048 18.371199 4.953003 0.000000 0.000000 0.000000 -30.011622 -10.281315 32.425179 179.999978 74.019265 179.999991 0.000000 0.000000 0.000000 
4.962335 15.333157 -2.236025 0.000000 0.000000 0.000000 1.072447 -28.263866 7.839710 -85.761440 -22.642536 48.847044 77.581564 9.287260 -6.964554 33.887816 -2.194147 -9.925290 -0.002621 0.000011 -0.002196 0.000000 0.000000 0.000000 1.072447 -28.263866 7.839710 7.587124 2.685186 -28.720549 106.555097 27.606812 3.988500 -1.114425 -1.876659 18.268432 57.965090 -3.213807 -6.507482 0.000000 0.000000 0.000000 1.072447 -28.263866 7.839710 3.762688 -5.618250 -4.480558 2.868904 -3.865679 -2.848182 0.000000 0.000000 0.000000 0.000000 0.000000 0.000000 2.832435 -3.913109 -2.804963 -0.146849 2.482500 4.214672 -0.611018 16.585675 5.251462 0.000000 0.000000 0.000000 2.832435 -3.913109 -2.804963 1.158535 -0.155928 0.806755 0.000000 0.000000 0.000000 -3.216555 -12.999010 -52.532662 -0.000000 -88.832484 0.000220 0.000000 0.000000 0.000000 2.832435 -3.913109 -2.804963 5.483521 18.399572 5.611605 0.000000 0.000000 0.000000 -28.556983 -8.861170 30.777078 179.999991 71.784141 179.999991 0.000000 0.000000 0.000000 
4.934949 15.337891 -2.248924 0.000000 0.000000 0.000000 0.973236 -28.165240 7.707571 -85.733361 -22.585904 48.977381 77.387464 9.471720 -7.035287 34.018095 -2.531967 -9.693662 -0.002387 -0.000002 -0.001929 0.000000 0.000000 0.000000 0.973236 -28.165240 7.707571 7.793382 2.518983 -28.345241 106.247438 27.511872 3.961706 -0.990082 -1.885799 18.597651 57.981223 -3.190630 -6.411470 0.000000 0.000000 0.000000 0.973236 -28.165240 7.707571 3.837465 -5.480999 -4.720481 2.916482 -3.766125 -2.975205 0.000000 0.000000 0.000000 0.000000 0.000000 0.000000 2.887550 -3.811525 -2.931171 -0.451603 2.300642 4.688341 -0.453966 16.505680 4.957954 0.000000 0.000000 0.000000 2.887550 -3.811525 -2.931171 1.087777 -0.046548 1.319184 0.000000 0.000000 0.000000 -3.299651 -13.327342 -52.781694 -0.000086 -89.005937 -0.000148 0.000000 0.000000 0.000000 2.887550 -3.811525 -2.931171 5.462845 18.429010 6.230584 0.000000 0.000000 0.000000 -26.761158 -7.355566 29.204130 179.999991 69.786174 179.999978 0.000000 0.000000 0.000000 
4.910766 15.344132 -2.262173 0.000000 0.000000 0.000000 0.869644 -27.971148 7.624302 -85.774205 -22.413191 48.915728 77.119755 9.703938 -7.049156 34.171395 -2.820189 -9.507610 -0.002105 0.000005 -0.001607 0.000000 0.000000 0.000000 0.869644 -27.971148 7.624302 8.095632 2.214629 -28.070807 105.909726 27.492083 3.941794 -1.011097 -1.916277 18.867928 58.079619 -3.160480 -6.300356 0.000000 0.000000 0.000000 0.869644 -27.971148 7.624302 3.878512 -5.403153 -4.941725 2.944082 -3.721401 -3.097349 0.000000 0.000000 0.000000 0.000000 0.000000 0.000000 2.921874 -3.764492 -3.052725 -0.705669 2.161375 5.082322 -0.109753 16.563368 4.532334 0.000000 0.000000 0.000000 2.921874 -3.764492 -3.052725 1.005245 0.123646 1.558421 0.000000 0.000000 0.000000 -3.192906 -13.660940 -52.879769 -0.000290 -89.201314 0.000169 0.000000 0.000000 0.000000 2.921874 -3.764492 -3.052725 5.467583 18.500998 6.754278 0.000000 0.000000 0.000000 -24.524160 -5.726034 27.904571 179.999978 67.812550 179.999991 0.000000 0.000000 0.000000 
